HIERARCHY
ROOT Hips
{
  OFFSET 5.70366 102.999 -1.77653
  CHANNELS 6 Xposition Yposition Zposition Zrotation Xrotation Yrotation
  JOINT RightUpLeg
  {
    OFFSET -8.9458 -8.66707 0.101652
    CHANNELS 3 Zrotation Xrotation Yrotation
    JOINT RightLeg
    {
      OFFSET 0 -44.4227 1.3727
      CHANNELS 3 Zrotation Xrotation Yrotation
      JOINT RightFoot
      {
        OFFSET 0.253549 -42.0924 -1.46059
        CHANNELS 3 Zrotation Xrotation Yrotation
        JOINT RightToes
        {
          OFFSET 0.04 -4.41509 8.4991
          CHANNELS 3 Zrotation Xrotation Yrotation
          End Site
          {
            OFFSET -0.08 -0.137448 9.77979
          }
        }
      }
    }
  }
  JOINT Spine
  {
    OFFSET 0 11.8905 0
    CHANNELS 3 Zrotation Xrotation Yrotation
    JOINT Spine1
    {
      OFFSET 0 25.6574 0.127663
      CHANNELS 3 Zrotation Xrotation Yrotation
      JOINT HEad
      {
        OFFSET 0 8.73416 0.011341
        CHANNELS 3 Zrotation Xrotation Yrotation
        End Site
        {
          OFFSET -0.29 12.7742 2.51395
        }
      }
      JOINT LeftShoulder1
      {
        OFFSET 8.99 -0.362252 -0.22
        CHANNELS 3 Zrotation Xrotation Yrotation
        JOINT LeftArm
        {
          OFFSET 10.2827 -0.00337999 0.322123
          CHANNELS 3 Zrotation Xrotation Yrotation
          JOINT LeftForeArm
          {
            OFFSET 26.2597 0.099144 -1.42434
            CHANNELS 3 Zrotation Xrotation Yrotation
            JOINT LeftHand
            {
              OFFSET 22.0902 0.085362 1.02216
              CHANNELS 3 Zrotation Xrotation Yrotation
              End Site
              {
                OFFSET 13.419 -0.6 1.50291
              }
            }
          }
        }
      }
      JOINT RightShoulder
      {
        OFFSET -8.99 -0.362252 -0.22
        CHANNELS 3 Zrotation Xrotation Yrotation
        JOINT RightArm
        {
          OFFSET -10.2827 -0.00338 0.322123
          CHANNELS 3 Zrotation Xrotation Yrotation
          JOINT RightForeArm
          {
            OFFSET -26.364 0.099144 -1.42434
            CHANNELS 3 Zrotation Xrotation Yrotation
            JOINT RightHand
            {
              OFFSET -22.0324 0.085362 1.02216
              CHANNELS 3 Zrotation Xrotation Yrotation
              End Site
              {
                OFFSET -13.3284 -0.6 1.50291
              }
            }
          }
        }
      }
    }
  }
  JOINT LeftUpLeg
  {
    OFFSET 8.9458 -8.66707 0.101652
    CHANNELS 3 Zrotation Xrotation Yrotation
    JOINT LeftLeg
    {
      OFFSET 0 -44.4227 1.3727
      CHANNELS 3 Zrotation Xrotation Yrotation
      JOINT LeftFoot
      {
        OFFSET -0.253549 -42.0924 -1.46059
        CHANNELS 3 Zrotation Xrotation Yrotation
        JOINT LeftToes
        {
          OFFSET -0.04 -4.41509 8.4991
          CHANNELS 3 Zrotation Xrotation Yrotation
          End Site
          {
            OFFSET 0.08 -0.047448 9.77979
          }
        }
      }
    }
  }
}
MOTION
Frames:	12
Frame Time:	0.0416667
-207.219 101.603 -42.3833 -1.14037 -1.53223 125.847 -2.42993 -20.1427 2.7947 -0.6716 34.3018 -6.57227 -4.85444 -9.63453 -0.26947 0.0462048 0.000530888 0.662642 -1.62474 3.72209 0.535511 -2.60229 0.129701 0.866274 8.10136 16.2276 -7.94314 -30.2614 -3.29257 12.709 -40.3513 -25.9183 -3.0472 -5.17529 56.7668 -8.57622 1.91759 9.79498 -5.32539 39.7477 0.643411 -2.77102 34.5138 -11.4033 1.18613 -2.39809 30.3914 24.2943 -1.85005 9.80867 4.9804 -2.51874 -4.53 -0.134489 1.77805 22.0168 4.88326 1.90811 -14.8186 0.19646 -1.28341e-009 8.75266e-006 -1.48244e-008 
-208.842 101.971 -41.9001 -1.71925 -1.80536 120.529 -1.51921 -17.6441 3.02438 -0.669212 34.7537 -6.42183 -4.9513 -10.7628 -0.328672 0.0462048 0.000530888 0.662642 -1.48879 2.84215 0.731837 -2.63071 0.678654 1.05622 7.86547 15.4378 -7.50425 -30.2155 -3.1978 12.4617 -40.1125 -28.1361 -1.8856 -5.42107 59.48 -7.01771 1.90473 9.80122 -4.69272 39.9516 0.604848 -2.85825 34.0043 -10.9538 2.04606 -2.00039 29.7829 24.0257 -1.85439 9.80459 5.48011 -3.26059 -4.99845 0.74667 1.85171 20.0048 9.18146 1.72046 -13.2296 0.149987 -1.28341e-009 8.75266e-006 -1.48244e-008 
-210.204 102.354 -41.415 -2.37506 -2.11436 115.341 -0.877138 -14.8666 3.74964 -0.641489 33.3691 -5.98746 -5.88438 -11.1153 -0.374514 0.0462048 0.000530888 0.662642 -1.1715 1.67175 0.935903 -2.70763 1.39172 1.28595 7.58316 15.1348 -6.59935 -29.8909 -3.07723 12.2088 -40.2528 -29.0226 -0.681789 -5.26939 60.5126 -6.40023 1.87381 9.80756 -4.19086 40.2607 0.563082 -2.9536 33.3543 -9.86429 3.0868 -1.76237 29.1592 24.1957 -1.60853 9.82855 5.29855 -3.55735 -5.42699 1.28825 1.65777 17.8724 13.6703 1.72484 -11.706 0.117143 -1.28341e-009 8.75266e-006 -1.48244e-008 
-211.323 102.682 -40.8092 -3.148 -2.46956 110.249 -0.480941 -12.1606 4.37473 -0.601835 30.5313 -5.45959 -5.01164 -10.9717 -0.34013 0.0462048 0.000530888 0.662642 -0.882762 0.880992 1.11042 -2.57203 1.41341 1.43515 7.19094 15.3815 -5.34801 -30.1563 -3.22163 12.5408 -39.699 -29.0392 0.233049 -5.2322 60.7818 -6.51959 1.5226 9.83644 -4.24125 40.186 0.586072 -2.9031 33.0683 -8.78844 3.80807 -1.881 29.0178 24.8069 -1.36008 9.85284 4.86165 -3.52639 -6.09887 1.50467 1.57252 16.138 18.3199 1.54223 -10.3502 0.083955 -1.28341e-009 8.75266e-006 -1.48244e-008 
-212.347 102.962 -40.0585 -3.87197 -2.83265 105.493 -0.243452 -9.56192 4.29165 -0.582322 25.8596 -5.27567 -1.76988 -10.4105 -0.232926 0.0462048 0.000530888 0.662642 -0.534892 0.540745 1.35555 -2.3403 1.21164 1.64968 6.76677 15.2415 -4.17031 -30.4639 -3.34775 12.8094 -39.2585 -28.2359 0.5258 -5.28672 60.3666 -7.17892 1.37037 9.84783 -4.60768 40.0048 0.62072 -2.82534 33.033 -8.56026 4.3335 -1.92805 28.8892 25.4261 -0.988279 9.88568 4.62788 -3.24303 -7.02718 1.54782 1.77624 15.1312 22.697 1.10457 -9.12771 0.0540448 -1.28341e-009 8.75266e-006 -1.48244e-008 
-213.367 103.194 -39.2307 -4.35807 -3.01303 101.542 -0.107154 -7.3208 1.78047 -0.984709 19.8405 -2.98672 -0.26082 -9.92561 -0.191418 0.0462048 0.000530888 0.662642 -0.0549962 0.53827 1.58406 -2.31407 1.38328 1.91811 6.65881 14.5387 -3.10469 -30.2633 -3.24275 12.573 -39.7851 -26.1799 -0.230987 -5.55034 58.5526 -8.02606 1.67383 9.82242 -4.49267 39.9431 0.618739 -2.82835 33.1665 -8.59207 5.09477 -1.76505 28.549 25.6751 -0.686901 9.91137 4.48431 -2.85975 -8.10212 1.55002 2.04147 15.0084 26.4424 0.928955 -8.17547 0.0381387 -1.28341e-009 8.75266e-006 -1.48244e-008 
-214.474 103.271 -38.3685 -4.60779 -2.94041 98.5264 0.0189047 -6.28305 -0.887716 -1.09557 15.2133 0.969666 -1.62481 -9.58459 -0.211751 0.0462048 0.000530888 0.662642 0.642811 1.40058 1.65115 -2.6645 1.15533 2.09505 6.55177 13.7786 -2.34064 -30.0476 -3.12912 12.3144 -40.4967 -23.4956 -2.18385 -5.95126 56.449 -8.68575 1.80392 9.81051 -4.61465 39.7239 0.640149 -2.77758 33.6869 -8.38806 5.92824 -1.73131 28.5039 25.6143 -0.650337 9.91496 4.383 -2.49002 -9.56648 1.49413 2.09907 16.161 29.5218 0.562547 -7.67754 0.0310961 -1.28341e-009 8.75266e-006 -1.48244e-008 
-215.699 103.153 -37.5206 -4.6128 -3.00893 96.3516 0.518911 -6.79948 -1.15399 -1.05362 14.1092 3.43979 -2.74962 -9.32552 -0.223171 0.0462048 0.000530888 0.662642 1.7984 3.09951 1.55045 -3.11476 0.389274 2.11145 5.93952 12.9187 -1.84428 -29.9724 -3.06696 12.1616 -41.1029 -21.2897 -4.73534 -5.89673 54.9167 -9.45763 1.84727 9.80045 -5.47922 39.3443 0.753319 -2.5226 34.2914 -8.03648 6.55766 -1.79885 28.6386 25.5367 -0.612046 9.91305 4.28798 -1.61502 -11.5377 1.94676 1.65223 18.69 31.3992 0.220178 -7.96382 0.0327399 -1.28341e-009 8.75266e-006 -1.48244e-008 
-216.869 102.845 -36.7696 -4.37504 -3.29083 95.103 1.24427 -8.34599 -0.823602 -0.968406 15.9675 4.3174 -3.06794 -9.61815 -0.237806 0.0462048 0.000530888 0.662642 2.77792 4.56904 1.31938 -3.03203 0.0771029 1.90578 5.32354 12.3069 -1.46965 -29.6318 -2.90247 11.7849 -42.2442 -19.1228 -6.90046 -5.03661 52.1714 -10.9889 2.15699 9.76678 -5.93778 39.0518 0.885884 -2.22378 34.4279 -7.37364 7.10668 -1.72602 28.6123 25.1149 -0.589721 9.90874 4.20174 -0.224043 -13.8564 3.54386 1.31011 22.5063 29.5095 1.16927 -8.9604 0.052187 -1.28341e-009 8.75266e-006 -1.48244e-008 
-217.74 102.636 -36.1752 -4.04594 -3.26523 94.6088 1.48624 -9.59656 -0.716739 -0.744792 17.8821 4.5823 -3.44094 -9.88056 -0.253933 0.0462048 0.000530888 0.662642 2.63385 5.3374 1.03402 -2.37447 0.0857111 1.5259 5.42774 13.0676 -1.41399 -29.1061 -2.72328 11.3992 -43.5083 -16.521 -8.23239 -4.16134 48.0068 -12.6757 2.45294 9.7371 -6.00397 38.9928 0.917409 -2.15247 34.2113 -7.00402 7.30492 -1.59603 29.0148 24.0265 -0.737044 9.90321 4.25068 0.851878 -15.5427 4.27039 1.1995 26.0149 23.1923 2.4555 -9.63451 0.0855413 -1.28341e-009 8.75266e-006 -1.48244e-008 
-218.206 102.674 -35.7657 -3.69647 -2.80195 94.3729 1.30141 -9.80438 -0.592858 -0.828383 18.3953 4.82869 -3.62122 -9.67914 -0.249755 0.0462048 0.000530888 0.662642 1.82991 5.65179 0.805346 -1.84705 -0.176653 1.20555 6.12911 15.0651 -1.85005 -28.7854 -2.66918 11.3143 -43.8618 -13.2649 -8.82969 -3.76055 43.8826 -14.0345 2.51892 9.71829 -6.67529 39.1085 0.841901 -2.32199 34.2205 -8.07031 6.52257 -1.58085 30.2893 22.9128 -0.778895 9.90091 4.27815 1.33026 -15.9905 3.42899 0.930236 28.0802 14.8759 2.04888 -10.4338 0.0970209 -1.28341e-009 8.75266e-006 -1.48244e-008 
-218.32 102.883 -35.6169 -3.27426 -2.32549 94.1105 1.04311 -8.95367 -0.736594 -1.10628 17.473 5.28055 -3.64854 -9.14635 -0.229482 0.0462048 0.000530888 0.662642 1.48944 5.46775 0.677495 -1.85937 -0.225259 1.0882 6.62076 16.7164 -2.41895 -28.7799 -2.67966 11.345 -43.1868 -8.25033 -8.7316 -3.30431 38.9896 -15.8099 2.50701 9.70011 -7.51426 39.0969 0.741925 -2.54072 34.5338 -9.77145 4.91617 -1.6406 31.5371 22.1804 -0.585872 9.90537 3.92537 1.45607 -15.2167 2.06684 0.746792 28.2919 9.77358 1.38861 -11.7926 0.106855 -1.28341e-009 8.75266e-006 -1.48244e-008 
